HIERARCHY
ROOT Hips
{
 OFFSET 0.000000 0.000000 0.000000
 CHANNELS 6 Xposition Yposition Zposition Yrotation Xrotation Zrotation
 JOINT Chest
 {
  OFFSET 0.000000 9.585900 0.002600
  CHANNELS 3 Yrotation Xrotation Zrotation
  JOINT Chest2
  {
   OFFSET 0.000000 9.601200 -0.005300
   CHANNELS 3 Yrotation Xrotation Zrotation
   JOINT Chest3
   {
    OFFSET 0.000000 9.561800 0.000000
    CHANNELS 3 Yrotation Xrotation Zrotation
    JOINT Chest4
    {
     OFFSET 0.000000 9.552100 0.000000
     CHANNELS 3 Yrotation Xrotation Zrotation
     JOINT Neck
     {
      OFFSET 0.000000 14.453000 0.000000
      CHANNELS 3 Yrotation Xrotation Zrotation
      JOINT Head
      {
       OFFSET 0.000000 8.936500 -0.011300
       CHANNELS 3 Yrotation Xrotation Zrotation
       End Site
       {
        OFFSET 0.000000 17.073600 -0.006000
       }
      }
     }
     JOINT RightCollar
     {
      OFFSET -2.921100 9.558500 0.000000
      CHANNELS 3 Yrotation Xrotation Zrotation
      JOINT RightShoulder
      {
       OFFSET -13.519700 0.000000 0.000000
       CHANNELS 3 Yrotation Xrotation Zrotation
       JOINT RightElbow
       {
        OFFSET 0.000000 -29.696600 0.000000
        CHANNELS 3 Yrotation Xrotation Zrotation
        JOINT RightWrist
        {
         OFFSET 0.000000 -24.004700 0.000000
         CHANNELS 3 Yrotation Xrotation Zrotation
         End Site
         {
          OFFSET 0.000000 -17.728500 0.000000
         }
        }
       }
      }
     }
     JOINT LeftCollar
     {
      OFFSET 2.921100 9.558500 0.000000
      CHANNELS 3 Yrotation Xrotation Zrotation
      JOINT LeftShoulder
      {
       OFFSET 13.519700 0.000000 0.000000
       CHANNELS 3 Yrotation Xrotation Zrotation
       JOINT LeftElbow
       {
        OFFSET 0.000000 -29.696600 0.000000
        CHANNELS 3 Yrotation Xrotation Zrotation
        JOINT LeftWrist
        {
         OFFSET 0.000000 -24.004700 0.000000
         CHANNELS 3 Yrotation Xrotation Zrotation
         End Site
         {
          OFFSET 0.000000 -17.728500 0.000000
         }
        }
       }
      }
     }
    }
   }
  }
 }
 JOINT RightHip
 {
  OFFSET -7.771700 -0.012900 -0.001300
  CHANNELS 3 Yrotation Xrotation Zrotation
  JOINT RightKnee
  {
   OFFSET 0.000000 -40.869800 0.001200
   CHANNELS 3 Yrotation Xrotation Zrotation
   JOINT RightAnkle
   {
    OFFSET 0.000000 -39.717900 0.002100
    CHANNELS 3 Yrotation Xrotation Zrotation
    JOINT RightToe
    {
     OFFSET 0.000000 -4.965400 11.033500
     CHANNELS 3 Yrotation Xrotation Zrotation
     End Site
     {
      OFFSET 0.000000 -1.423100 5.872300
     }
    }
   }
  }
 }
 JOINT LeftHip
 {
  OFFSET 7.771700 -0.012900 -0.001300
  CHANNELS 3 Yrotation Xrotation Zrotation
  JOINT LeftKnee
  {
   OFFSET 0.000000 -40.869800 0.001200
   CHANNELS 3 Yrotation Xrotation Zrotation
   JOINT LeftAnkle
   {
    OFFSET 0.000000 -39.717900 0.002100
    CHANNELS 3 Yrotation Xrotation Zrotation
    JOINT LeftToe
    {
     OFFSET 0.000000 -4.965400 11.033500
     CHANNELS 3 Yrotation Xrotation Zrotation
     End Site
     {
      OFFSET 0.000000 -1.423100 5.872300
     }
    }
   }
  }
 }
}
MOTION
Frames: 9
Frame Time: 0.008333
0.000000 85.388000 0.000000 0.000000 -5.767877 0.000000 0.000000 11.653817 0.000000 0.000000 -5.885947 0.000000 0.000000 -0.000000 0.000000 0.000000 -0.000000 0.000000 0.000000 12.528835 0.000000 0.000000 0.711642 0.000000 0.000000 -0.000000 0.000000 0.000000 0.000000 -90.000000 0.000000 -2.309062 0.000000 0.000000 2.309062 0.000000 0.000000 -0.000000 0.000000 0.000000 -0.000000 90.000000 0.000000 -2.309062 0.000000 0.000000 2.309062 0.000000 0.000000 8.520406 0.000000 0.000000 1.905762 0.000000 -0.000000 -4.658285 0.000000 0.000000 -0.000000 0.000000 0.000000 8.520406 0.000000 0.000000 1.905762 0.000000 -0.000000 -4.658285 0.000000 0.000000 -0.000000 0.000000
-217.772766 57.481723 134.399463 173.868864 -28.520971 -1.207210 3.070607 20.014070 3.026788 0.333229 2.501111 0.300813 0.530304 4.153927 0.566770 2.547791 17.151593 2.613673 -0.280274 13.497646 -1.385979 0.020070 -10.722720 -2.507792 3.611257 -3.084985 -1.722091 9.753556 -15.281810 -17.290409 147.928314 -72.077182 -115.570901 14.571706 -14.251578 -43.250164 -6.540497 -6.415014 -2.082419 0.001233 -8.012196 0.513210 34.915386 -69.921615 -69.160367 -7.972257 4.773987 2.612047 3.512488 -47.769994 0.702682 -12.674441 68.348700 -18.246186 6.329338 22.684849 5.162893 -0.567131 -15.853245 4.327219 -7.546855 -44.789802 4.953543 33.034772 69.812070 36.077995 -14.192746 2.559382 -6.824840 0.022467 0.142623 -0.001850
-217.773298 57.486217 134.395310 173.861237 -28.534209 -1.201420 3.102205 19.973980 2.969811 0.323567 2.524504 0.330474 0.538424 4.137000 0.549530 2.563448 17.149780 2.605246 -0.164671 13.442514 -1.256636 0.188139 -10.824763 -2.309892 3.584666 -3.048868 -1.651021 9.728789 -15.286488 -17.281028 147.917420 -72.061967 -115.567438 14.588283 -14.229599 -43.293499 -6.531798 -6.335461 -2.103156 -0.000328 -8.142049 0.510131 34.945172 -69.975036 -69.160114 -7.991261 4.778218 2.603926 3.535533 -47.748546 0.676554 -12.662171 68.348490 -18.210971 6.326437 22.668764 5.159378 -0.567540 -15.842155 4.319648 -7.541808 -44.765902 4.951203 33.028917 69.804333 36.065871 -14.182227 2.559875 -6.823335 0.021448 0.145653 0.000355
-217.774520 57.490662 134.391616 173.861601 -28.538172 -1.197325 3.106069 19.966845 2.952574 0.329599 2.512282 0.312332 0.541993 4.131702 0.543340 2.577310 17.140741 2.582539 -0.038078 13.375930 -1.102304 0.367316 -10.948313 -2.069345 3.559836 -3.028046 -1.601528 9.655476 -15.285473 -17.253999 147.924717 -72.035785 -115.584516 14.573916 -14.231117 -43.296479 -6.522209 -6.264835 -2.125678 0.009940 -8.250893 0.486126 34.957519 -70.028765 -69.140797 -8.005384 4.777855 2.607730 3.565510 -47.735948 0.633839 -12.650008 68.349741 -18.167090 6.330623 22.648511 5.161552 -0.578973 -15.828183 4.309948 -7.540623 -44.758308 4.947706 33.026030 69.803132 36.058151 -14.181265 2.565574 -6.821256 0.028495 0.146525 0.004388
-217.775367 57.496065 134.386522 173.860399 -28.546224 -1.195761 3.111278 19.964161 2.938901 0.330574 2.512476 0.310598 0.546168 4.120991 0.520575 2.586059 17.134448 2.558034 0.102681 13.296511 -0.926515 0.564862 -11.095894 -1.794107 3.546624 -3.008877 -1.565071 9.633007 -15.284737 -17.225616 147.818531 -72.018851 -115.531428 14.561225 -14.233427 -43.302807 -6.507423 -6.202237 -2.149209 0.032503 -8.336471 0.439448 34.947675 -70.089586 -69.098369 -8.013363 4.776853 2.616696 3.590104 -47.721037 0.597138 -12.654567 68.357542 -18.132275 6.329523 22.620758 5.146007 -0.585758 -15.811970 4.306033 -7.541816 -44.744573 4.949461 33.005198 69.804791 36.034959 -14.179905 2.569901 -6.823708 0.031818 0.143362 0.007954
-217.778669 57.501773 134.380594 173.868419 -28.552509 -1.185540 3.110680 19.948367 2.872488 0.325803 2.526163 0.350344 0.545356 4.120804 0.517484 2.588724 17.131973 2.545509 0.246165 13.198950 -0.766938 0.785380 -11.266772 -1.496185 3.552539 -3.001568 -1.570053 9.608706 -15.284178 -17.194176 147.687826 -72.003021 -115.441176 14.554428 -14.230320 -43.322066 -6.489371 -6.156773 -2.204643 0.067602 -8.398787 0.370116 34.921110 -70.156689 -69.038378 -8.020321 4.778664 2.626717 3.630317 -47.705026 0.522843 -12.644002 68.369808 -18.068120 6.315055 22.580061 5.132400 -0.576374 -15.785880 4.288098 -7.539870 -44.733448 4.934437 32.997782 69.800915 36.020017 -14.188313 2.576956 -6.822585 0.039617 0.139345 0.010625
-217.779661 57.509355 134.371499 173.897363 -28.577401 -1.199066 3.087399 19.969921 2.860603 0.327527 2.519429 0.331630 0.545818 4.124342 0.530622 2.576404 17.125017 2.484898 0.421180 13.100213 -0.549412 1.027006 -11.457447 -1.184828 3.570815 -2.985278 -1.583877 9.577445 -15.304114 -17.106425 147.492495 -71.983492 -115.280548 14.525229 -14.259043 -43.329624 -6.466322 -6.100545 -2.215971 0.112063 -8.442088 0.282859 34.890080 -70.224442 -68.970564 -8.028008 4.780823 2.639049 3.644628 -47.670020 0.448502 -12.676020 68.396937 -18.006853 6.313181 22.513857 5.072242 -0.568195 -15.752310 4.286316 -7.566272 -44.705323 4.934074 32.997918 69.804547 36.017986 -14.191640 2.582223 -6.824333 0.045110 0.130359 0.012083
-217.781070 57.515178 134.365523 173.910330 -28.578444 -1.206391 3.077552 19.967942 2.849547 0.327985 2.515368 0.314924 0.545470 4.122922 0.524427 2.569570 17.124918 2.458319 0.598719 12.991790 -0.341307 1.285190 -11.662020 -0.868357 3.593466 -2.976287 -1.595951 9.564248 -15.302369 -17.059447 147.307854 -71.951945 -115.142164 14.485970 -14.289763 -43.344896 -6.445857 -6.047893 -2.243007 0.161439 -8.473523 0.183576 34.851991 -70.287719 -68.892136 -8.028125 4.778264 2.655149 3.648425 -47.662147 0.417233 -12.691652 68.406937 -17.977657 6.298771 22.488297 5.038108 -0.558047 -15.739854 4.285243 -7.581085 -44.702601 4.938478 33.006797 69.802659 36.021066 -14.195405 2.594611 -6.819447 0.044573 0.119736 0.011355
-217.781413 57.521210 134.359234 173.921835 -28.581529 -1.220995 3.062524 19.959997 2.803237 0.327430 2.514494 0.307777 0.550920 4.124981 0.546860 2.584524 17.130797 2.481605 0.757150 12.876634 -0.174830 1.554336 -11.875172 -0.551826 3.600306 -2.973299 -1.610309 9.588188 -15.274827 -17.112530 147.217300 -71.923161 -115.120352 14.514770 -14.251886 -43.366511 -6.437627 -6.003429 -2.310973 0.208455 -8.496573 0.074108 34.812872 -70.341634 -68.807972 -8.019198 4.771830 2.674176 3.643886 -47.652242 0.397885 -12.693062 68.416810 -17.931519 6.270882 22.467426 4.999201 -0.546418 -15.729443 4.283630 -7.602000 -44.698049 4.953559 33.030717 69.803818 36.041335 -14.198980 2.601797 -6.816110 0.047843 0.111528 0.011504
